<svg xmlns="http://www.w3.org/2000/svg" width="524.2072143554688" height="348.61419677734375" viewBox="-304.7152404785156 -158.06649780273438 524.2072143554688 348.61419677734375"><title>Neo4j Graph Visualization</title><desc>Created using Neo4j (http://www.neo4j.com/)</desc><g class="layer relationships"><g class="relationship" transform="translate(-80.71513004315726 20.867704902840842) rotate(360.3114301882551)"><path class="b-outline" fill="#DA7194" stroke="none" d="M 37.98998543880643,-12.7675763698235 L 39.284080664319035,-7.937947238378159 A 335.6318124197228 335.6318124197228 0 0 1 51.2939381415586,-10.919812360670619 L 50.178757086765614,-15.793863162111961 A 340.6318124197228 340.6318124197228 0 0 0 37.98998543880643,-12.7675763698235 Z M 195.02307752260876,-17.339280615495966 L 194.01214593679248,-12.44254524090212 A 335.6318124197228 335.6318124197228 0 0 1 206.08289217730737,-9.717608282319935 L 205.36844047733086,-6.803923541583439 L 217.36177930998826,-9.526022666353214 L 207.98809671057802,-17.48743425761726 L 207.2736450106015,-14.573749516880762 A 340.6318124197228 340.6318124197228 0 0 0 195.02307752260876,-17.339280615495966"/><text text-anchor="middle" pointer-events="none" font-size="8px" fill="#000000" x="122.54449153843262" y="-18.85507937286235" font-family="Helvetica Neue, Helvetica, Arial, sans-serif">FUNCTIONALLY_ASSOCIATED_WITH</text></g><g class="relationship" transform="translate(-80.71513004315726 20.867704902840842) rotate(217.23062890163834)"><path class="b-outline" fill="#8DCC93" stroke="none" d="M 38.37821400646021,-11.318687630389897 L 38.89585209666525,-9.386835977811762 A 274.46639112519114 274.46639112519114 0 0 1 88.13092360018335,-17.871765118504612 L 87.97205491195628,-19.86544531851186 A 276.46639112519114 276.46639112519114 0 0 0 38.37821400646021,-11.318687630389897 Z M 126.94490380996965,-20.21515419924404 L 126.82183697077585,-18.21894415190664 A 274.46639112519114 274.46639112519114 0 0 1 176.2012412429113,-10.618896638362408 L 175.47690928069014,-7.707652366834363 L 184.20600328772647,-9.657759496282022 L 177.40846117994656,-15.470970424242484 L 176.6841292177254,-12.55972615271444 A 276.46639112519114 276.46639112519114 0 0 0 126.94490380996965,-20.21515419924404"/><text text-anchor="middle" pointer-events="none" font-size="8px" fill="#000000" x="107.46128200969243" y="-16.727962236253205" transform="rotate(180 107.46128200969243 -19.727962236253205)" font-family="Helvetica Neue, Helvetica, Arial, sans-serif">HAS_GO</text></g><g class="relationship" transform="translate(-80.71513004315726 20.867704902840842) rotate(505.07641154019916)"><path class="b-outline" fill="#8DCC93" stroke="none" d="M 38.37821400646021,-11.318687630389897 L 38.89585209666525,-9.386835977811762 A 267.63149909780105 267.63149909780105 0 0 1 86.38929556785561,-17.61888558355733 L 86.2265741719208,-19.612255029321233 A 269.63149909780105 269.63149909780105 0 0 0 38.37821400646021,-11.318687630389897 Z M 125.20129468410302,-19.96734803254961 L 125.07491988287545,-17.971344673430536 A 267.63149909780105 267.63149909780105 0 0 1 172.71046892874912,-10.60600146616753 L 171.9869387611811,-7.694557821406561 L 180.71549537063436,-9.647068900906547 L 173.91635254136244,-15.458407540769144 L 173.19282237379443,-12.546963896008176 A 269.63149909780105 269.63149909780105 0 0 0 125.20129468410302,-19.96734803254961"/><text text-anchor="middle" pointer-events="none" font-size="8px" fill="#000000" x="105.71662023413533" y="-16.49500962555149" transform="rotate(180 105.71662023413533 -19.49500962555149)" font-family="Helvetica Neue, Helvetica, Arial, sans-serif">HAS_GO</text></g><g class="relationship" transform="translate(-80.71513004315726 20.867704902840842) rotate(217.23062890163834)"><path class="b-outline" fill="#ECB5C9" stroke="none" d="M 38.24880448390895,11.801650543534432 L 39.025261619216515,8.903873064667227 A 273.12616410022247 273.12616410022247 0 0 0 67.51404019144852,14.930393249703712 L 67.05050194473682,17.894365633825288 A 276.12616410022247 276.12616410022247 0 0 1 38.24880448390895,11.801650543534432 Z M 146.88750115000252,18.696943282606668 L 146.483642428389,15.724251214299471 A 273.12616410022247 273.12616410022247 0 0 0 175.08781700341873,10.271669535908408 L 174.36977189102942,7.358868269674506 L 184.1852433583151,9.573934831857438 L 176.52390722819734,16.097272068376213 L 175.80586211580803,13.184470802142311 A 276.12616410022247 276.12616410022247 0 0 1 146.88750115000252,18.696943282606668"/><text text-anchor="middle" pointer-events="none" font-size="8px" fill="#000000" x="106.95491880012537" y="22.69654605077247" transform="rotate(180 106.95491880012537 19.69654605077247)" font-family="Helvetica Neue, Helvetica, Arial, sans-serif">ANNOTATED_WITH</text></g><g class="relationship" transform="translate(-80.71513004315726 20.867704902840842) rotate(505.07641154019916)"><path class="b-outline" fill="#ECB5C9" stroke="none" d="M 38.24880448390895,11.801650543534432 L 39.025261619216515,8.903873064667227 A 266.2779229990318 266.2779229990318 0 0 0 65.7834974945053,14.618346255733144 L 65.30850999183477,17.580505412886367 A 269.2779229990318 269.2779229990318 0 0 1 38.24880448390895,11.801650543534432 Z M 145.14194608441525,18.395311926618632 L 144.72751678822476,15.42407508677249 A 266.2779229990318 266.2779229990318 0 0 0 171.59681394165167,10.25694227545073 L 170.87966374936735,7.343920545063787 L 180.69445422895467,9.56200256379119 L 173.03111432622035,16.082985736224614 L 172.31396413393603,13.169964005837674 A 269.2779229990318 269.2779229990318 0 0 1 145.14194608441525,18.395311926618632"/><text text-anchor="middle" pointer-events="none" font-size="8px" fill="#000000" x="105.2101714682413" y="22.46312725149747" transform="rotate(180 105.2101714682413 19.46312725149747)" font-family="Helvetica Neue, Helvetica, Arial, sans-serif">ANNOTATED_WITH</text></g><g class="relationship" transform="translate(-80.71513004315726 20.867704902840842) rotate(360.3114301882551)"><path class="b-outline" fill="#4C8EDA" stroke="none" d="M 38.24880448390895,11.801650543534432 L 39.025261619216515,8.903873064667227 A 338.1398291226122 338.1398291226122 0 0 0 96.66782277469228,19.103426695528583 L 96.40277443708575,22.091695321126394 A 341.1398291226122 341.1398291226122 0 0 1 38.24880448390895,11.801650543534432 Z M 150.7016051234702,22.569158961576022 L 150.48914694277272,19.576691497850675 A 338.1398291226122 338.1398291226122 0 0 0 208.30215553110722,10.392368507193268 L 207.57677633127093,7.4813849935943235 L 217.39779567182222,9.671722664483871 L 209.7529139307798,16.21433553439116 L 209.02753473094353,13.303352020792214 A 341.1398291226122 341.1398291226122 0 0 1 150.7016051234702,22.569158961576022"/><text text-anchor="middle" pointer-events="none" font-size="8px" fill="#000000" x="123.55586403225229" y="24.912578390261046" font-family="Helvetica Neue, Helvetica, Arial, sans-serif">IN_CLUSTER</text></g><g class="relationship" transform="translate(175.4919943453272 22.260327875397294) rotate(524.096295443028)"><path class="b-outline" fill="#FFC454" stroke="none" d="M 40 0.5 L 189.3587218268468 0.5 L 189.3587218268468 -0.5 L 40 -0.5 Z M 257.209467981632 0.5 L 406.56818980847873 0.5 L 406.56818980847873 3.5 L 413.56818980847873 0 L 406.56818980847873 -3.5 L 406.56818980847873 -0.5 L 257.209467981632 -0.5 Z"/><text text-anchor="middle" pointer-events="none" font-size="8px" fill="#000000" x="223.28409490423937" y="3" transform="rotate(180 223.28409490423937 0)" font-family="Helvetica Neue, Helvetica, Arial, sans-serif">ENRICHED_FOR</text></g><g class="relationship" transform="translate(175.4919943453272 22.260327875397294) rotate(197.44673515240237)"><path class="b-outline" fill="#FFC454" stroke="none" d="M 40 0.5 L 189.92314047894052 0.5 L 189.92314047894052 -0.5 L 40 -0.5 Z M 257.7738866337257 0.5 L 407.6970271126662 0.5 L 407.6970271126662 3.5 L 414.6970271126662 0 L 407.6970271126662 -3.5 L 407.6970271126662 -0.5 L 257.7738866337257 -0.5 Z"/><text text-anchor="middle" pointer-events="none" font-size="8px" fill="#000000" x="223.8485135563331" y="3" transform="rotate(180 223.8485135563331 0)" font-family="Helvetica Neue, Helvetica, Arial, sans-serif">ENRICHED_FOR</text></g></g><g class="layer nodes"><g class="node" aria-label="graph-node12" transform="translate(-80.71513004315726,20.867704902840842)"><circle class="b-outline" cx="0" cy="0" r="40" fill="#C990C0" stroke="#b261a5" stroke-width="2px"/><text class="caption" text-anchor="middle" pointer-events="none" x="0" y="5" font-size="10px" fill="#FFFFFF" font-family="Helvetica Neue, Helvetica, Arial, sans-serif"> sp|P15703|B…</text></g><g class="node" aria-label="graph-node13" transform="translate(175.4919943453272,22.260327875397294)"><circle class="b-outline" cx="0" cy="0" r="40" fill="#F79767" stroke="#f36924" stroke-width="2px"/><text class="caption" text-anchor="middle" pointer-events="none" x="0" y="5" font-size="10px" fill="#FFFFFF" font-family="Helvetica Neue, Helvetica, Arial, sans-serif"> C2</text></g><g class="node" aria-label="graph-node87" transform="translate(-258.28719111840803,-114.06650265885634)"><circle class="b-outline" cx="0" cy="0" r="40" fill="#57C7E3" stroke="#23b3d7" stroke-width="2px"/><text class="caption" text-anchor="middle" pointer-events="none" x="0" y="-5" font-size="10px" fill="#2A2C34" font-family="Helvetica Neue, Helvetica, Arial, sans-serif"> carbohydrate</text><text class="caption" text-anchor="middle" pointer-events="none" x="0" y="5" font-size="10px" fill="#2A2C34" font-family="Helvetica Neue, Helvetica, Arial, sans-serif"> metabolic</text><text class="caption" text-anchor="middle" pointer-events="none" x="0" y="15" font-size="10px" fill="#2A2C34" font-family="Helvetica Neue, Helvetica, Arial, sans-serif"> process</text></g><g class="node" aria-label="graph-node92" transform="translate(-260.71523538813415,146.5477187660239)"><circle class="b-outline" cx="0" cy="0" r="40" fill="#57C7E3" stroke="#23b3d7" stroke-width="2px"/><text class="caption" text-anchor="middle" pointer-events="none" x="0" y="-15" font-size="10px" fill="#2A2C34" font-family="Helvetica Neue, Helvetica, Arial, sans-serif"> hydrolase</text><text class="caption" text-anchor="middle" pointer-events="none" x="0" y="-5" font-size="10px" fill="#2A2C34" font-family="Helvetica Neue, Helvetica, Arial, sans-serif"> activity,</text><text class="caption" text-anchor="middle" pointer-events="none" x="0" y="5" font-size="10px" fill="#2A2C34" font-family="Helvetica Neue, Helvetica, Arial, sans-serif"> hydrolyzing</text><text class="caption" text-anchor="middle" pointer-events="none" x="0" y="15" font-size="10px" fill="#2A2C34" font-family="Helvetica Neue, Helvetica, Arial, sans-serif"> O-glycosyl</text><text class="caption" text-anchor="middle" pointer-events="none" x="0" y="25" font-size="10px" fill="#2A2C34" font-family="Helvetica Neue, Helvetica, Arial, sans-serif"> compoun</text></g></g></svg>